<?xml version="1.0" encoding="UTF-8" standalone="no"?> <svg width="64" height="64" viewBox="0 0 64 64" fill="none" xmlns="http://www.w3.org/2000/svg">
<path d="M20 11C18.4317 10.0592 16.6785 9.46877 14.8605 9.26923C13.0426 9.0697 11.203 9.26577 9.468 9.844L9 10L10 7L7 5L8.231 4.648C12.0584 3.55476 16.0195 3.0001 20 3V3V11Z" fill="#FF7373"/>
<path d="M20 6.46V11C18.432 10.0594 16.6793 9.46885 14.8618 9.26863C13.0444 9.06842 11.2051 9.26332 9.47 9.84L9 10L10 7L7 5L8.23 4.65C8.96 4.44 9.7 4.25 10.44 4.09C10.8978 5.12421 11.6838 5.97865 12.6763 6.52099C13.6687 7.06334 14.8124 7.26333 15.93 7.09L20 6.46Z" fill="#EF5350"/>
<path d="M25 14L20.918 13.184C20.6544 13.1312 20.3807 13.1665 20.1391 13.2845C19.8975 13.4025 19.7014 13.5966 19.581 13.837C19.5065 13.9865 19.4633 14.1496 19.454 14.3163C19.4447 14.4831 19.4696 14.65 19.527 14.8068C19.5845 14.9636 19.6734 15.1071 19.7883 15.2283C19.9031 15.3496 20.0415 15.4461 20.195 15.512L23.874 17.089C24.5202 17.3659 25.228 17.4676 25.926 17.3839C26.624 17.3001 27.2877 17.0339 27.85 16.612L30 15V20H36V15L39 16L41.342 19.123C41.5266 19.3692 41.7918 19.5429 42.0914 19.6136C42.3909 19.6843 42.7058 19.6476 42.981 19.51C43.2638 19.3684 43.4861 19.1296 43.6072 18.8374C43.7282 18.5452 43.7399 18.2191 43.64 17.919L42.474 14.419C42.3268 13.9764 42.0785 13.5742 41.7486 13.2444C41.4188 12.9146 41.0166 12.6662 40.574 12.519L36 11H30.333C29.4675 11 28.6254 11.2807 27.933 11.8L25 14Z" fill="#FCEA42"/>
<path d="M42.93 18.23C42.6449 18.1604 42.3823 18.0191 42.1671 17.8196C41.9518 17.6201 41.7911 17.369 41.7 17.09L41.23 15.69C41.1582 15.4714 41.0433 15.2695 40.8921 15.096C40.741 14.9226 40.5567 14.7811 40.35 14.68C39.9745 14.4902 39.6798 14.1714 39.5201 13.7821C39.3603 13.3928 39.3461 12.9589 39.48 12.56L39.6 12.2L36 11H30.33C29.691 11.0017 29.062 11.1585 28.497 11.457C28.2994 11.5547 28.1107 11.6695 27.933 11.8L26.385 12.962L27.143 14.857L26.93 15.07C26.6541 15.3458 26.3033 15.5346 25.9211 15.6128C25.5389 15.691 25.1421 15.6553 24.78 15.51L23.02 14.81C22.7139 14.6877 22.443 14.4911 22.2317 14.2379C22.0205 13.9848 21.8756 13.6831 21.81 13.36L20.92 13.18C20.6553 13.1296 20.3814 13.1667 20.1396 13.2858C19.8979 13.4049 19.7014 13.5994 19.58 13.84C19.4936 14.0068 19.449 14.1921 19.45 14.38C19.4498 14.62 19.5197 14.8548 19.6512 15.0556C19.7827 15.2563 19.97 15.4143 20.19 15.51L23.87 17.09C24.5172 17.3661 25.2257 17.4671 25.9243 17.3829C26.6229 17.2986 27.287 17.0321 27.85 16.61L30 15V20H36V15L39 16L41.34 19.12C41.5248 19.3663 41.79 19.5402 42.0895 19.6115C42.3891 19.6827 42.7042 19.6468 42.98 19.51C43.1854 19.4068 43.3606 19.2521 43.4885 19.0611C43.6164 18.8701 43.6928 18.6492 43.71 18.42L42.93 18.23Z" fill="#FDC741"/>
<path d="M35 10H31V12H35V10Z" fill="#EFAD1B"/>
<path d="M30 6H36V8C36 8.79565 35.6839 9.55871 35.1213 10.1213C34.5587 10.6839 33.7956 11 33 11C32.2044 11 31.4413 10.6839 30.8787 10.1213C30.3161 9.55871 30 8.79565 30 8V6Z" fill="#FCEA42"/>
<path d="M24.656 23.546L23.517 28.675C23.4548 28.9543 23.4562 29.244 23.521 29.5227C23.5858 29.8014 23.7124 30.0619 23.8915 30.2851C24.0705 30.5083 24.2974 30.6884 24.5554 30.8122C24.8134 30.9359 25.0959 31.0001 25.382 31V31C25.8348 31 26.2728 30.8392 26.6179 30.5461C26.963 30.253 27.1927 29.8468 27.266 29.4L28 25L32 24V27.2C32.0013 27.7227 32.1392 28.236 32.4 28.689L35.481 34.08C35.6402 34.3585 35.8702 34.5901 36.1476 34.7511C36.4251 34.9121 36.7402 34.997 37.061 34.997C37.3711 34.9971 37.6761 34.9178 37.947 34.7668C38.2179 34.6158 38.4457 34.398 38.6087 34.1342C38.7717 33.8704 38.8646 33.5692 38.8785 33.2594C38.8924 32.9496 38.8268 32.6413 38.688 32.364L36 27V20H30L26.471 21.412C26.0177 21.5932 25.6154 21.8823 25.2991 22.2541C24.9828 22.626 24.7621 23.0695 24.656 23.546V23.546Z" fill="#00B4D8"/>
<path d="M33 2C33.7956 2 34.5587 2.31607 35.1213 2.87868C35.6839 3.44129 36 4.20435 36 5V6H30V5C30 4.20435 30.3161 3.44129 30.8787 2.87868C31.4413 2.31607 32.2044 2 33 2Z" fill="#00B4D8"/>
<path d="M36 11H30.333C29.4675 11 28.6254 11.2807 27.933 11.8L27.222 12.333L27.922 16.556L30 15V20H36V15L37.435 15.478L38.478 11.826L36 11Z" fill="#48CAE4"/>
<path d="M35.24 9.98C34.963 10.3024 34.6191 10.5606 34.2323 10.7367C33.8455 10.9128 33.425 11.0027 33 11C32.2044 11 31.4413 10.6839 30.8787 10.1213C30.3161 9.55871 30 8.79565 30 8V6H32V7C32 7.79565 32.3161 8.55871 32.8787 9.12132C33.4413 9.68393 34.2044 10 35 10C35.0805 10.0033 35.1611 9.99657 35.24 9.98V9.98Z" fill="#FDC741"/>
<path d="M32.76 2.01999C32.272 2.56416 32.0014 3.26902 32 3.99999V5.99999H30V4.99999C29.9968 4.24598 30.28 3.51888 30.7923 2.96568C31.3047 2.41249 32.008 2.07447 32.76 2.01999V2.01999Z" fill="#0096C7"/>
<path d="M35 16V16.9C33.8706 16.6695 32.8556 16.0558 32.1267 15.1629C31.3978 14.27 30.9997 13.1527 31 12V11H30.33C29.4648 11.0017 28.6232 11.2823 27.93 11.8L27.22 12.33L27.93 16.56L30 15V20H36V15C35.7348 15 35.4804 15.1054 35.2929 15.2929C35.1053 15.4804 35 15.7348 35 16Z" fill="#00B4D8"/>
<path d="M38.88 33.19C38.8779 33.5906 38.7437 33.9793 38.498 34.2957C38.2524 34.6122 37.9092 34.8388 37.5217 34.9402C37.1341 35.0416 36.724 35.0123 36.3548 34.8568C35.9856 34.7012 35.6781 34.4282 35.48 34.08L32.4 28.69C32.1377 28.2373 31.9997 27.7232 32 27.2V24L28 25L27.27 29.4C27.2289 29.652 27.1377 29.8932 27.0018 30.1094C26.8659 30.3255 26.688 30.5122 26.4787 30.6585C26.2694 30.8047 26.0328 30.9075 25.7831 30.9607C25.5334 31.0139 25.2755 31.0165 25.0248 30.9684C24.774 30.9203 24.5355 30.8223 24.3232 30.6804C24.1109 30.5384 23.9293 30.3554 23.789 30.142C23.6487 29.9287 23.5526 29.6894 23.5064 29.4383C23.4602 29.1871 23.4649 28.9293 23.52 28.68L24.66 23.55C24.764 23.0726 24.9833 22.6279 25.2988 22.2549C25.6144 21.8818 26.0165 21.5917 26.47 21.41L30 20H36V21.42C35.3917 21.7697 34.8864 22.2738 34.5352 22.8813C34.184 23.4888 33.9994 24.1783 34 24.88V26.89C34.0006 27.6155 34.1975 28.3274 34.57 28.95L35.83 31.06C36.1523 31.5946 36.5949 32.0466 37.1227 32.3799C37.6505 32.7133 38.2488 32.9187 38.87 32.98C38.8783 33.0497 38.8817 33.1198 38.88 33.19V33.19Z" fill="#0096C7"/>
<path d="M38 61L48 38L51 45L58 47L61 61H38Z" fill="#FCEA42"/>
<path d="M38 61L48 38L49 48L56 50L59 61H38Z" fill="#FDC741"/>
<path d="M52 61H3L8 43L15 41L20 23L24 31H30L32 35H40L52 61Z" fill="#FCEA42"/>
<path d="M46 61H3L8 43L15 41L20 23L21 33H29L30 39L35 37L39 38L42.073 48.751L46 51V61Z" fill="#FDC741"/>
<path d="M8 61L16 53L17 47L24 42L25.049 49.317L30 52L35 61H8Z" fill="#EFAD1B"/>
<path d="M12 61L18 53L19 47L24 42L25.049 49.317L30 52L35 61H12Z" fill="#FCEA42"/>
<path d="M12 61L18 53L19 47L24 42L21.049 51.317L26 54L25 61H12Z" fill="#FDC741"/>
<path d="M28 61L29.429 57L36 53L41 61H28Z" fill="#FCEA42"/>
<path d="M28 61L31.429 57L35 56L36 59L41 61H28Z" fill="#FDC741"/>
<path d="M31 46L34 41L36 44L39 45L40 47H36L34 44L31 46Z" fill="#FCEA42"/>
<path d="M10 52L12 49L14 52L12 51L10 52Z" fill="#FCEA42"/>
<path d="M21 38L23 35L26 38L23 37L21 38Z" fill="#FCEA42"/>
<path d="M53.017 44.539L51.732 44.17L48.919 37.606C48.8419 37.4262 48.7138 37.2729 48.5504 37.1652C48.3871 37.0574 48.1957 37 48 37V37C47.8054 36.9999 47.6149 37.0566 47.452 37.1632C47.2891 37.2698 47.1609 37.4216 47.083 37.6L44.763 42.933L40.908 34.58C40.8278 34.4067 40.6997 34.26 40.5388 34.1573C40.3779 34.0545 40.191 33.9999 40 34H39.755C39.9658 33.3094 39.9024 32.5641 39.578 31.919L37 26.764V24C37 23.7348 36.8947 23.4804 36.7071 23.2929C36.5196 23.1054 36.2652 23 36 23C35.7348 23 35.4805 23.1054 35.2929 23.2929C35.1054 23.4804 35 23.7348 35 24V27C34.9983 27.1547 35.0326 27.3077 35.1 27.447L37.784 32.813C37.8464 32.9376 37.876 33.0761 37.87 33.2153C37.864 33.3545 37.8226 33.4899 37.7498 33.6087C37.6769 33.7275 37.575 33.8258 37.4536 33.8942C37.3322 33.9627 37.1954 33.9991 37.056 34C36.9116 33.9998 36.7699 33.9616 36.645 33.8891C36.5202 33.8165 36.4167 33.7123 36.345 33.587L33.4 28.426C33.1394 27.9733 33.0015 27.4604 33 26.938V24C33 23.8481 32.9653 23.6982 32.8987 23.5617C32.8321 23.4252 32.7353 23.3057 32.6155 23.2122C32.4958 23.1187 32.3564 23.0537 32.2078 23.0221C32.0592 22.9905 31.9054 22.9932 31.758 23.03L27.758 24.03C27.5698 24.0768 27.3992 24.1774 27.2671 24.3194C27.135 24.4615 27.0471 24.6389 27.014 24.83L26.279 29.23C26.2584 29.3494 26.2141 29.4634 26.1489 29.5654C26.0836 29.6675 25.9986 29.7555 25.8989 29.8242C25.7991 29.893 25.6867 29.9411 25.5681 29.9658C25.4495 29.9906 25.3272 29.9914 25.2083 29.9682C25.0894 29.945 24.9763 29.8984 24.8757 29.8309C24.7751 29.7635 24.6889 29.6766 24.6223 29.5755C24.5557 29.4743 24.5099 29.3609 24.4877 29.2418C24.4655 29.1227 24.4673 29.0004 24.493 28.882L25.633 23.753C25.7036 23.4354 25.8506 23.1397 26.0613 22.8917C26.2719 22.6438 26.54 22.4509 26.842 22.33L30.193 21H36C36.2652 21 36.5196 20.8946 36.7071 20.7071C36.8947 20.5196 37 20.2652 37 20V16.387L38.388 16.85L40.542 19.722C40.8711 20.1634 41.3468 20.4729 41.8836 20.595C42.4204 20.7171 42.9832 20.6437 43.4708 20.388C43.9583 20.1323 44.3387 19.711 44.5435 19.2C44.7483 18.689 44.7641 18.1216 44.588 17.6L43.423 14.1C43.2252 13.5119 42.8939 12.9776 42.4552 12.5388C42.0164 12.1001 41.4821 11.7688 40.894 11.571L36.401 10.071C36.7885 9.44941 36.9959 8.73247 37 8V5C37 3.93913 36.5786 2.92172 35.8285 2.17157C35.0783 1.42143 34.0609 1 33 1C31.9392 1 30.9217 1.42143 30.1716 2.17157C29.4215 2.92172 29 3.93913 29 5V8C29.0033 8.72806 29.2071 9.44115 29.589 10.061C28.7716 10.184 27.9971 10.5065 27.334 11L24.758 12.932L21.114 12.2C21.076 12.192 21.038 12.193 21 12.187V3C21 2.73478 20.8947 2.48043 20.7071 2.29289C20.5196 2.10536 20.2652 2 20 2C15.9264 1.99953 11.8727 2.56733 7.95603 3.687L6.72603 4.039C6.54255 4.0914 6.37789 4.1952 6.2515 4.33814C6.1251 4.48109 6.04224 4.65721 6.0127 4.84573C5.98315 5.03424 6.00816 5.22727 6.08476 5.40203C6.16137 5.57679 6.28638 5.72598 6.44503 5.832L8.81003 7.408L8.05203 9.684C7.99338 9.86009 7.9849 10.049 8.02753 10.2297C8.07016 10.4103 8.16222 10.5755 8.2934 10.7068C8.42459 10.8381 8.58973 10.9303 8.77034 10.9731C8.95094 11.0158 9.13989 11.0075 9.31603 10.949L9.78403 10.792C11.294 10.2907 12.8906 10.1038 14.4756 10.2428C16.0606 10.3817 17.6003 10.8436 19 11.6V12.932C18.8766 13.0704 18.7715 13.2239 18.687 13.389C18.552 13.6603 18.4735 13.9562 18.4563 14.2587C18.4391 14.5613 18.4836 14.8642 18.587 15.149C18.6817 15.4007 18.8217 15.6328 19 15.834V22.861L14.187 40.191L7.72603 42.039C7.56131 42.0858 7.41135 42.1741 7.29054 42.2954C7.16972 42.4167 7.08208 42.5671 7.03603 42.732L5.62603 47.813C5.55508 48.0687 5.58861 48.342 5.71923 48.573C5.84985 48.8039 6.06686 48.9736 6.32253 49.0445C6.5782 49.1154 6.85158 49.0819 7.08253 48.9513C7.31348 48.8207 7.48308 48.6037 7.55403 48.348L8.81303 43.808L15.274 41.961C15.4387 41.9142 15.5887 41.8259 15.7095 41.7046C15.8303 41.5833 15.918 41.4329 15.964 41.268L20.264 25.768L23.101 31.443C23.1838 31.6106 23.312 31.7516 23.4709 31.8501C23.6298 31.9485 23.8131 32.0005 24 32H29.382L31.105 35.447C31.1881 35.6132 31.3158 35.753 31.4739 35.8507C31.632 35.9484 31.8142 36.0001 32 36H39.36L51.092 61.419C51.1721 61.5925 51.3001 61.7394 51.461 61.8423C51.622 61.9453 51.809 62 52 62C52.1677 61.9998 52.3327 61.9575 52.4798 61.8769C52.6269 61.7962 52.7513 61.6799 52.8416 61.5386C52.932 61.3972 52.9853 61.2355 52.9967 61.0681C53.0081 60.9008 52.9773 60.7333 52.907 60.581L45.886 45.367L47.993 40.523L50.081 45.394C50.1395 45.5303 50.2275 45.6518 50.3387 45.7499C50.4499 45.848 50.5815 45.9201 50.724 45.961L52.464 46.461C52.5537 46.487 52.6466 46.5002 52.74 46.5C52.9811 46.5001 53.2141 46.4131 53.3961 46.2551C53.5781 46.097 53.6969 45.8786 53.7306 45.6399C53.7644 45.4012 53.7107 45.1583 53.5796 44.9561C53.4485 44.7538 53.2487 44.6057 53.017 44.539V44.539ZM26.1 20.483C25.4954 20.7247 24.9589 21.1104 24.5372 21.6066C24.1154 22.1027 23.8212 22.6943 23.68 23.33L22.942 26.648L21 22.764V16.945L23.48 18.008C24.2878 18.3529 25.172 18.4795 26.0441 18.3751C26.9162 18.2706 27.7455 17.9389 28.449 17.413L29 17V19.323L26.1 20.483ZM41.526 14.739L42.691 18.239C42.7146 18.3106 42.7116 18.3883 42.6826 18.4579C42.6536 18.5275 42.6005 18.5843 42.533 18.618C42.4675 18.6517 42.392 18.6608 42.3203 18.6438C42.2486 18.6267 42.1854 18.5846 42.142 18.525L39.8 15.4C39.678 15.2371 39.5091 15.1154 39.316 15.051L38.66 14.832L39.153 13.105L40.261 13.475C40.5552 13.5736 40.8225 13.7391 41.042 13.9584C41.2615 14.1777 41.4272 14.4449 41.526 14.739V14.739ZM31 8V7H35V8C35 8.53043 34.7893 9.03914 34.4142 9.41421C34.0392 9.78929 33.5305 10 33 10C32.4696 10 31.9609 9.78929 31.5858 9.41421C31.2107 9.03914 31 8.53043 31 8ZM33 3C33.5305 3 34.0392 3.21071 34.4142 3.58579C34.7893 3.96086 35 4.46957 35 5H31C31 4.46957 31.2107 3.96086 31.5858 3.58579C31.9609 3.21071 32.4696 3 33 3ZM30.333 12H35.838L37.253 12.472L36.76 14.2L36.316 14.052C36.1658 14.002 36.0058 13.9883 35.8492 14.0122C35.6927 14.0361 35.544 14.0968 35.4155 14.1894C35.287 14.2819 35.1824 14.4037 35.1101 14.5446C35.0379 14.6856 35.0001 14.8416 35 15V19H31V15C31 14.8143 30.9483 14.6322 30.8507 14.4743C30.753 14.3163 30.6133 14.1886 30.4472 14.1056C30.2811 14.0225 30.0952 13.9874 29.9102 14.004C29.7253 14.0207 29.5486 14.0886 29.4 14.2L28.642 14.769L28.309 12.769L28.533 12.601C29.0529 12.2125 29.684 12.0017 30.333 12V12ZM24.8 14.98C24.9385 15.0082 25.0814 15.0068 25.2193 14.9758C25.3572 14.9447 25.487 14.8848 25.6 14.8L26.506 14.12L26.828 16.049C26.4367 16.257 26.0042 16.3757 25.5616 16.3966C25.119 16.4175 24.6772 16.3402 24.268 16.17L20.589 14.593C20.5607 14.5809 20.5352 14.5631 20.514 14.5407C20.4928 14.5183 20.4764 14.4918 20.4658 14.4629C20.4552 14.434 20.4507 14.4032 20.4524 14.3724C20.4542 14.3416 20.4622 14.3115 20.476 14.284C20.4989 14.2404 20.5351 14.2052 20.5793 14.1836C20.6236 14.1621 20.6736 14.1552 20.722 14.164L24.8 14.98ZM13.479 8.192C12.4944 8.19189 11.5127 8.29851 10.551 8.51L10.951 7.316C11.0204 7.10803 11.0196 6.88301 10.9485 6.67558C10.8775 6.46815 10.7403 6.28981 10.558 6.168L9.36403 5.375C12.5121 4.54729 15.7459 4.08986 19 4.012V9.357C17.2607 8.58891 15.3804 8.19213 13.479 8.192V8.192ZM30.9 30.553C30.8166 30.386 30.6881 30.2457 30.529 30.148C30.3699 30.0502 30.1867 29.999 30 30H28.14C28.1884 29.8591 28.2258 29.7147 28.252 29.568L28.879 25.811L31 25.281V26.938C31.0002 27.8079 31.2274 28.6627 31.659 29.418L34.277 34H32.618L30.9 30.553Z" fill="#023E8A"/>
<path d="M61.978 60.791L58.978 46.791C58.9399 46.6131 58.854 46.449 58.7296 46.3164C58.6052 46.1837 58.447 46.0874 58.272 46.038L56.862 45.638C56.6085 45.5709 56.3388 45.6061 56.111 45.7359C55.8832 45.8657 55.7155 46.0799 55.644 46.3322C55.5725 46.5845 55.603 46.8547 55.7289 47.0848C55.8548 47.3148 56.066 47.4862 56.317 47.562L57.148 47.798L60.022 61.209C60.0698 61.4329 60.193 61.6335 60.371 61.7775C60.549 61.9215 60.7711 62 61 62C61.0709 62 61.1416 61.9926 61.211 61.978C61.47 61.9221 61.6963 61.7657 61.8401 61.5432C61.9839 61.3206 62.0335 61.0501 61.978 60.791Z" fill="#023E8A"/>
<path d="M5.78701 50.977C5.66022 50.942 5.52776 50.9323 5.39721 50.9485C5.26667 50.9647 5.14061 51.0065 5.02626 51.0716C4.91191 51.1366 4.81151 51.2235 4.73082 51.3274C4.65012 51.4313 4.59072 51.5501 4.55601 51.677L2.03601 60.737C2.00082 60.8636 1.9909 60.9959 2.00683 61.1263C2.02276 61.2567 2.06423 61.3827 2.12886 61.4972C2.19348 61.6116 2.28001 61.7121 2.3835 61.7931C2.48699 61.874 2.60542 61.9338 2.73201 61.969C2.85861 62.0042 2.99089 62.0141 3.12132 61.9982C3.25174 61.9823 3.37776 61.9408 3.49216 61.8762C3.60656 61.8115 3.70711 61.725 3.78807 61.6215C3.86903 61.518 3.92882 61.3996 3.96401 61.273L6.48301 52.213C6.51888 52.0861 6.52932 51.9534 6.51371 51.8225C6.49811 51.6916 6.45678 51.5651 6.39209 51.4502C6.32741 51.3354 6.24065 51.2344 6.1368 51.1532C6.03296 51.072 5.91408 51.0121 5.78701 50.977V50.977Z" fill="#023E8A"/>
<path d="M25.5 45.443L24.986 41.858C24.96 41.6736 24.8831 41.5001 24.7639 41.3571C24.6447 41.2141 24.4879 41.1072 24.3112 41.0485C24.1345 40.9897 23.9449 40.9815 23.7638 41.0247C23.5826 41.0679 23.4172 41.1608 23.286 41.293L18.286 46.293C18.1389 46.4402 18.0413 46.6297 18.007 46.835L17.047 52.595L11.2 60.4C11.0409 60.6122 10.9725 60.8789 11.0101 61.1414C11.0476 61.404 11.1878 61.6409 11.4 61.8C11.6122 61.9591 11.8789 62.0275 12.1414 61.99C12.404 61.9524 12.6409 61.8122 12.8 61.6L18.8 53.6C18.8959 53.472 18.9597 53.3228 18.986 53.165L19.934 47.48L23.294 44.121L23.523 45.727C23.5607 45.9897 23.7011 46.2267 23.9135 46.3858C24.1259 46.5449 24.3928 46.6132 24.6555 46.5755C24.9182 46.5378 25.1552 46.3974 25.3143 46.185C25.4734 45.9726 25.5417 45.7057 25.504 45.443H25.5Z" fill="#023E8A"/>
<path d="M36.848 52.47C36.7085 52.2469 36.4867 52.0877 36.2306 52.027C35.9745 51.9664 35.7048 52.0091 35.48 52.146L32.3 54.082L30.873 51.514C30.7799 51.3475 30.6411 51.2112 30.473 51.121L25.521 48.438C25.2884 48.3171 25.0176 48.2924 24.7669 48.3692C24.5162 48.4461 24.3058 48.6183 24.1808 48.8488C24.0559 49.0793 24.0264 49.3496 24.0989 49.6016C24.1713 49.8536 24.3398 50.067 24.568 50.196L29.268 52.74L30.591 55.122L28.909 56.146C28.7131 56.2652 28.5642 56.4481 28.487 56.664L27.059 60.664C26.9698 60.9137 26.9835 61.1886 27.0969 61.4283C27.2104 61.6679 27.4144 61.8527 27.664 61.942C27.7719 61.9802 27.8856 61.9998 28 62C28.2062 61.9998 28.4073 61.9359 28.5757 61.8171C28.7442 61.6982 28.8718 61.5302 28.941 61.336L30.251 57.67L35.676 54.37L40.152 61.532C40.2216 61.6436 40.3125 61.7404 40.4196 61.8169C40.5266 61.8934 40.6476 61.9481 40.7758 61.9778C40.9039 62.0075 41.0367 62.0117 41.1664 61.9901C41.2962 61.9685 41.4204 61.9216 41.532 61.852C41.6437 61.7824 41.7405 61.6915 41.817 61.5845C41.8935 61.4775 41.9481 61.3564 41.9778 61.2283C42.0076 61.1001 42.0117 60.9674 41.9902 60.8376C41.9686 60.7079 41.9216 60.5836 41.852 60.472L36.848 52.47Z" fill="#023E8A"/>
<path d="M31.857 46.515L34.045 42.87L35.168 44.555C35.2914 44.7401 35.4729 44.8787 35.684 44.949L38.291 45.818L39.105 47.447C39.2235 47.6844 39.4315 47.8649 39.6832 47.9489C39.9349 48.0329 40.2096 48.0135 40.447 47.895C40.6843 47.7764 40.8649 47.5684 40.9489 47.3168C41.0329 47.0651 41.0135 46.7904 40.895 46.553L39.895 44.553C39.7754 44.3166 39.5673 44.1369 39.316 44.053L36.642 43.162L34.832 40.447C34.7421 40.3032 34.6154 40.186 34.4652 40.1074C34.3149 40.0289 34.1464 39.9918 33.977 40C33.8083 40.0039 33.6434 40.0505 33.4976 40.1353C33.3518 40.2201 33.2298 40.3404 33.143 40.485L30.143 45.485C30.0121 45.712 29.9755 45.9814 30.0412 46.2351C30.1069 46.4889 30.2695 46.7067 30.4942 46.8417C30.7188 46.9767 30.9875 47.0181 31.2424 46.957C31.4972 46.8959 31.7179 46.7372 31.857 46.515V46.515Z" fill="#023E8A"/>
<path d="M13.168 52.555C13.3152 52.7756 13.544 52.9288 13.8041 52.9807C14.0643 53.0327 14.3343 52.9792 14.555 52.832C14.7757 52.6848 14.9288 52.456 14.9808 52.1959C15.0327 51.9357 14.9792 51.6656 14.832 51.445L12.832 48.445C12.7353 48.3156 12.6097 48.2106 12.4653 48.1383C12.3208 48.066 12.1615 48.0283 12 48.0283C11.8385 48.0283 11.6792 48.066 11.5348 48.1383C11.3903 48.2106 11.2648 48.3156 11.168 48.445L9.16801 51.445C9.02081 51.6656 8.9673 51.9357 9.01925 52.1959C9.0712 52.456 9.22435 52.6848 9.44501 52.832C9.66567 52.9792 9.93576 53.0327 10.1959 52.9807C10.456 52.9288 10.6848 52.7756 10.832 52.555L12 50.8L13.168 52.555Z" fill="#023E8A"/>
<path d="M21.832 38.555L23.155 36.57L25.293 38.707C25.4816 38.8892 25.7342 38.9899 25.9964 38.9877C26.2586 38.9854 26.5094 38.8802 26.6948 38.6948C26.8802 38.5094 26.9854 38.2586 26.9877 37.9964C26.99 37.7342 26.8892 37.4816 26.707 37.293L23.707 34.293C23.6024 34.1884 23.4759 34.1083 23.3366 34.0585C23.1974 34.0086 23.0488 33.9903 22.9015 34.0049C22.7543 34.0194 22.6122 34.0664 22.4853 34.1425C22.3585 34.2186 22.2501 34.3219 22.168 34.445L20.168 37.445C20.0208 37.6657 19.9673 37.9357 20.0192 38.1959C20.0712 38.456 20.2243 38.6848 20.445 38.832C20.6657 38.9792 20.9358 39.0327 21.1959 38.9808C21.456 38.9288 21.6848 38.7757 21.832 38.555Z" fill="#023E8A"/>
</svg>
